<svg width="41" height="41" viewBox="0 0 41 41" fill="none" xmlns="http://www.w3.org/2000/svg">
<path d="M28.3139 11.3189C27.3203 9.74222 26.3091 8.14367 24.9656 6.89168C23.6222 5.63657 21.8819 4.74988 20.0975 4.8654C18.5306 4.96843 17.0784 5.83639 15.9319 6.96974C14.7855 8.10308 13.8947 9.49869 13.0187 10.8818C10.6493 14.6159 8.27697 18.35 5.90757 22.0873C4.78167 23.8607 3.62636 25.7121 3.31476 27.8258C2.93848 30.3797 3.95267 32.9805 5.75177 34.679C7.63317 36.4555 10.6816 36.3119 12.9717 35.8248C15.4822 35.2909 17.9368 34.2856 20.4973 34.2887C22.6903 34.2887 24.8098 35.0318 26.944 35.5719C29.0753 36.1089 31.3654 36.4399 33.4231 35.6406C35.9777 34.6509 37.8121 31.8378 37.7621 28.9498C37.7151 26.3147 34.9048 21.7688 34.9048 21.7688C34.9048 21.7688 30.5104 14.8025 28.3139 11.3189Z" fill="#36CA56"/>
</svg>
