<svg width="41" height="41" viewBox="0 0 41 41" fill="none" xmlns="http://www.w3.org/2000/svg">
<path d="M28.3139 11.3189C27.3203 9.74216 26.3091 8.14361 24.9656 6.89162C23.6222 5.63651 21.8819 4.74982 20.0975 4.86534C18.5306 4.96837 17.0784 5.83633 15.9319 6.96968C14.7855 8.10302 13.8947 9.49863 13.0187 10.8818C10.6493 14.6159 8.27697 18.35 5.90757 22.0872C4.78167 23.8606 3.62636 25.712 3.31476 27.8258C2.93848 30.3797 3.95267 32.9805 5.75177 34.6789C7.63317 36.4554 10.6816 36.3118 12.9717 35.8247C15.4822 35.2909 17.9368 34.2855 20.4973 34.2886C22.6903 34.2886 24.8098 35.0317 26.944 35.5718C29.0753 36.1089 31.3654 36.4398 33.4231 35.6405C35.9777 34.6508 37.8121 31.8377 37.7621 28.9497C37.7151 26.3146 34.9048 21.7687 34.9048 21.7687C34.9048 21.7687 30.5104 14.8024 28.3139 11.3189Z" fill="#3C98F4"/>
</svg>
