<svg width="57" height="54" viewBox="0 0 57 54" fill="none" xmlns="http://www.w3.org/2000/svg">
<path d="M35.5 38.1029C25.9 24.9029 19.1667 22.2695 17 22.6029L16.5 24.6028L18 26.1028L11.5 33.1028H10L1 23.1028V21.1028L5 16.1028L10 15.1029C22.8 -6.49712 35.3333 1.4362 40 8.10286C29.2 7.70286 27.8333 15.6029 28.5 19.6029C30.9 20.4029 46.8333 34.9362 54.5 42.1029C56.9 45.3028 56.5 48.1029 56 49.1029C56 50.3029 54.3333 52.2695 53.5 53.1029C49.1 53.9029 46.3333 51.7695 45.5 50.6029L35.5 38.1029Z" fill="#FFD021" stroke="#FFD021"/>
<path d="M38.5 23.1027L36.5 21.1027L43.5 13.6028C43.1 12.8028 42.6667 11.6028 42.5 11.1028L48.5 4.60275C49.3 3.80275 50.5 3.93608 51 4.10275L54 7.10275C54.4 7.50275 54.1667 8.60275 54 9.10275L48 15.6027H46L38.5 23.1027Z" fill="#FFD021" stroke="#FFD021"/>
<path d="M10.5002 43.6029L21.5002 31.6029C22.2336 30.8029 23.4723 31.2695 24 31.6029C25.3333 32.7695 28.2 35.3029 29 36.1029C29.8 36.9029 29.6667 38.1029 29.5 38.6029C26.3333 42.2695 19.5 50.0029 17.5 51.6029C15.5 53.2029 13.6667 52.9362 13 52.6029C12.3334 51.9362 10.7002 50.2029 9.50022 48.6029C8.30022 47.0029 9.66688 44.6029 10.5002 43.6029Z" fill="#FFD021" stroke="#FFD021"/>
</svg>
