<svg width="57" height="56" viewBox="0 0 57 56" fill="none" xmlns="http://www.w3.org/2000/svg">
<path d="M27 0C41.9117 0 54 12.0883 54 27C54 32.2548 52.4963 37.1575 49.8994 41.3057C49.6287 41.736 49.6023 42.3488 49.751 43.0312C49.8962 43.6975 50.1876 44.3321 50.4131 44.7148L55.8818 51.1777L55.9199 51.2236L55.9473 51.2764C56.8767 53.1358 55.9446 54.7622 55.3535 55.3535L55.2812 55.4268L55.1855 55.4648C53.0323 56.326 51.0492 55.8336 50.2764 55.4473L50.1934 55.4062L50.1318 55.3379L44.7803 49.5H41.9268C37.6508 52.3424 32.5193 54 27 54C12.0883 54 0 41.9117 0 27C0 12.0883 12.0883 0 27 0ZM27 7C15.9543 7 7 15.9543 7 27C7 38.0457 15.9543 47 27 47C38.0457 47 47 38.0457 47 27C47 15.9543 38.0457 7 27 7Z" fill="#FB5A4A"/>
<circle cx="25.5" cy="16.5" r="3" fill="#FB5A4A" stroke="#FB5A4A"/>
</svg>
