<svg width="178" height="136" viewBox="0 0 178 136" fill="none" xmlns="http://www.w3.org/2000/svg">
<g clip-path="url(#clip0_36_340)">
<path d="M124.847 134.764H50.6807V92.7272C56.614 71.9563 72.9307 62.6423 80.3473 60.5818H92.7084C114.464 65.5272 123.199 84.0727 124.847 92.7272V134.764Z" fill="#36CA56" stroke="#36CA56"/>
<path d="M3.70855 117.455H37.0836H39.5558V86.5455C40.5447 80.6109 44.0881 75.006 45.7363 72.9455C42.7697 68 37.9075 65.9395 35.8474 65.5273H17.3058C7.41688 68.4946 2.47244 78.3031 1.23633 82.8364V114.982L3.70855 117.455Z" fill="#36CA56" stroke="#36CA56"/>
<path d="M87.764 51.9273C102.1 51.9273 113.722 40.303 113.722 25.9636C113.722 11.6243 102.1 0 87.764 0C73.4276 0 61.8057 11.6243 61.8057 25.9636C61.8057 40.303 73.4276 51.9273 87.764 51.9273Z" fill="#36CA56"/>
<path d="M25.9582 56.8727C37.5639 56.8727 46.9721 47.4626 46.9721 35.8545C46.9721 24.2465 37.5639 14.8364 25.9582 14.8364C14.3526 14.8364 4.94434 24.2465 4.94434 35.8545C4.94434 47.4626 14.3526 56.8727 25.9582 56.8727Z" fill="#36CA56"/>
<path d="M152.042 56.8727C163.647 56.8727 173.056 47.4626 173.056 35.8545C173.056 24.2465 163.647 14.8364 152.042 14.8364C140.436 14.8364 131.028 24.2465 131.028 35.8545C131.028 47.4626 140.436 56.8727 152.042 56.8727Z" fill="#36CA56"/>
<path d="M139.68 91.4909V117.455L142.153 119.927H171.819C175.775 119.927 176.764 115.806 176.764 113.745V85.3091C173.797 72.4509 162.343 66.7636 156.986 65.5273H149.569C139.68 65.5273 132.264 70.4727 129.792 72.9455C136.714 79.8691 139.268 88.194 139.68 91.4909Z" fill="#36CA56" stroke="#36CA56"/>
</g>
<defs>
<clipPath id="clip0_36_340">
<rect width="178" height="136" fill="white"/>
</clipPath>
</defs>
</svg>
