<svg width="1104" height="272" viewBox="0 0 1104 272" fill="none" xmlns="http://www.w3.org/2000/svg">
<path d="M0 132.796V234.03H12.1488H24.2977V197.555V160.952L37.9811 161.336L51.5367 161.72L66.3711 197.811L81.2055 234.03H94.5052C106.526 234.03 107.677 233.774 107.038 231.727C106.654 230.575 99.3648 213.169 90.9245 193.204C82.3564 173.239 75.4507 156.857 75.7065 156.729C75.9623 156.473 78.1363 155.193 80.566 153.657C87.0881 149.818 92.7149 143.547 96.8071 135.484L100.388 128.445V96.4492C100.388 66.2453 100.26 64.0696 97.5744 58.4383C93.7379 49.9915 84.5304 40.6487 75.8344 36.1693L68.4172 32.4578L34.2725 32.0739L0 31.6899V132.796ZM63.0461 56.6466C68.0335 58.6943 73.5325 64.4535 75.3229 69.3168C77.1132 74.0522 77.1132 118.846 75.3229 123.581C73.4046 128.701 69.1845 132.924 63.3019 135.612C59.2096 137.532 54.9895 138.044 41.3061 138.044H24.2977V96.4492V54.8548H41.5618C53.4549 54.8548 60.2327 55.3667 63.0461 56.6466Z" fill="#231F20"/>
<path d="M128.177 132.796V234.03H158.101C184.189 234.03 189.049 233.646 196.082 231.599C212.323 226.479 224.216 214.577 228.564 198.963C230.355 193.076 230.61 187.445 230.355 172.087C229.843 153.273 229.715 152.506 225.751 144.443C223.577 139.835 219.613 134.204 217.183 131.772L212.707 127.421L216.927 122.174C226.518 110.271 227.286 107.712 227.286 84.2908C227.286 63.8136 227.158 62.9177 223.833 56.7745C219.229 48.0717 210.917 40.3928 201.709 36.0414L194.036 32.4578L161.17 32.0739L128.177 31.6899V132.796ZM191.223 56.6466C196.722 58.9502 203.371 66.6292 204.267 72.0045C204.778 74.4361 204.906 82.3711 204.65 89.7941C204.267 104.384 203.116 107.328 195.443 112.959C192.374 115.391 189.816 115.647 172.168 116.031L152.474 116.414V85.6986V54.8548H169.738C181.376 54.8548 188.409 55.3667 191.223 56.6466ZM190.455 140.731C195.571 142.651 200.942 148.026 203.755 154.041C205.673 158.137 206.185 162.36 206.185 174.902C206.185 192.052 204.906 197.299 198.768 203.698C192.885 209.842 188.409 210.994 169.61 210.994H152.474V175.158V139.323H169.61C179.074 139.323 188.409 139.963 190.455 140.731Z" fill="#231F20"/>
<path d="M282.898 42.3125C281.107 48.1997 273.307 74.3082 265.506 100.545L251.439 148.154V191.156V234.031H262.948H274.458V201.395V168.759H303.871H333.284V201.395V234.031H344.793H356.302V190.772V147.642L339.294 90.05L322.158 32.4578L304.126 32.0739L286.095 31.6899L282.898 42.3125ZM319.856 100.289L332.9 146.362L304.766 146.746C289.292 146.874 276.376 146.746 276.12 146.49C275.736 146.234 280.852 127.037 287.246 103.872C293.768 80.8353 299.65 59.9741 300.29 57.6704C301.185 54.3429 302.08 53.447 304.126 53.8309C306.428 54.2149 308.346 59.8461 319.856 100.289Z" fill="#231F20"/>
<path d="M420.399 32.7293C400.066 36.1848 382.034 54.7423 378.581 75.7314C377.814 79.8269 377.302 107.471 377.302 137.035C377.302 179.141 377.686 192.708 379.221 199.619C382.546 215.361 392.521 228.415 406.588 235.326C414.516 239.165 415.667 239.421 429.734 239.421C443.034 239.421 445.208 239.037 451.73 235.966C470.145 227.391 482.166 208.449 482.166 187.972V181.189H470.657H459.147V186.436C459.147 194.371 456.718 201.026 451.73 206.786C445.72 213.953 439.198 217.024 430.118 217.024C416.051 217.024 404.669 207.682 401.728 193.987C399.81 185.285 399.81 87.6338 401.728 78.931C405.181 62.5492 420.399 52.3106 436.001 55.7661C447.51 58.3258 457.869 70.9961 457.869 82.5145C457.869 85.0742 458.508 85.2022 469.506 85.2022H481.271L480.376 77.2672C478.202 55.8941 462.089 37.7206 441.755 33.3692C432.036 31.3215 429.606 31.1935 420.399 32.7293Z" fill="#231F20"/>
<path d="M618.876 271.111H704.625L706.544 266.635C713.072 251.034 714.351 228.143 709.744 210.623C700.401 175.071 664.95 143.484 621.564 132.103C611.197 129.417 606.206 128.778 591.232 128.778C571.139 128.65 559.364 130.696 542.855 137.09L533 140.799V158.702C533 168.421 533.256 176.478 533.512 176.478C533.768 176.478 538.247 174.432 543.367 172.002C558.724 164.841 570.883 162.155 589.312 162.027C607.23 162.027 617.085 163.818 632.187 170.212C644.089 175.071 655.479 182.361 664.31 190.801L671.221 197.323L657.399 211.518L643.705 225.841L636.282 219.83C606.078 195.532 568.323 196.172 541.319 221.493L533 229.166V250.138V271.111H618.876Z" fill="#F26224"/>
<path d="M535.176 96.5513C536.456 96.1677 543.495 94.2495 550.918 92.3312C563.204 89.262 566.531 88.8784 589.952 88.8784C613.501 88.8784 616.701 89.262 629.115 92.3312C661.623 100.516 687.347 114.839 711.152 137.857C734.957 160.876 746.603 183 751.466 214.203C753.642 228.654 753.002 248.86 749.931 261.52C748.907 265.74 748.139 269.577 748.011 270.088C748.011 270.727 754.282 271.111 761.961 271.111H775.911L777.575 259.857C780.135 243.233 779.623 216.889 776.295 201.159C769.64 169.061 756.714 144.507 733.933 120.977C708.848 95.0168 681.332 77.4968 648.824 66.6268C613.885 55.1174 572.163 53.5828 537.735 62.7903L533 64.0692V80.6939C533 96.1677 533.128 97.4465 535.176 96.5513Z" fill="#F26224"/>
<path d="M534.536 21.74C535.432 21.74 540.807 20.7169 546.438 19.566C559.749 16.8805 609.406 16.3689 623.868 18.9266C676.469 28.262 719.471 50.1299 757.482 86.8322C788.709 117.14 807.651 152.18 816.098 194.893C819.041 210.367 820.065 242.338 818.018 261.136L816.866 271.111H960.334L1103.8 271.111V135.556V-2.76566e-05L818.401 -2.76566e-05H533V10.87C533 18.6708 533.384 21.74 534.536 21.74Z" fill="#F26224"/>
</svg>
