<svg width="128" height="130" viewBox="0 0 128 130" fill="none" xmlns="http://www.w3.org/2000/svg">
<g clip-path="url(#clip0_36_335)">
<path d="M64 130C99.3462 130 128 100.899 128 65C128 29.1015 99.3462 0 64 0C28.6538 0 0 29.1015 0 65C0 100.899 28.6538 130 64 130Z" fill="#3C98F4"/>
<path d="M43.0546 66.1818C47.5532 66.1818 51.2001 62.478 51.2001 57.9091C51.2001 53.3402 47.5532 49.6364 43.0546 49.6364C38.556 49.6364 34.9092 53.3402 34.9092 57.9091C34.9092 62.478 38.556 66.1818 43.0546 66.1818Z" fill="white"/>
<path d="M84.9453 66.1818C89.4439 66.1818 93.0907 62.478 93.0907 57.9091C93.0907 53.3402 89.4439 49.6364 84.9453 49.6364C80.4466 49.6364 76.7998 53.3402 76.7998 57.9091C76.7998 62.478 80.4466 66.1818 84.9453 66.1818Z" fill="white"/>
<path d="M41.8908 82.7273C37.2362 81.7818 36.8485 85.4849 37.2362 87.4545C47.4764 99.7454 59.3453 102.03 63.9998 101.636C77.9635 100.691 88.4362 92.5758 91.9271 88.6363C92.858 82.9636 89.2119 83.1213 87.2726 83.9091C76.1017 91.4727 66.3271 92.5758 62.8362 92.1818C54.458 92.1818 45.3817 85.8787 41.8908 82.7273Z" fill="white" stroke="white"/>
</g>
<defs>
<clipPath id="clip0_36_335">
<rect width="128" height="130" fill="white"/>
</clipPath>
</defs>
</svg>
